<svg xmlns="http://www.w3.org/2000/svg" viewBox="0 0 192 192" fill="none">
  <rect width="192" height="192" rx="38" fill="#000"/>
  <path d="M96 32C60.654 32 32 60.654 32 96s28.654 64 64 64 64-28.654 64-64S131.346 32 96 32zm29.389 92.293c-1.28 1.914-3.52 2.56-5.44 1.28-15.04-9.28-33.92-11.2-56.32-6.08-2.227.65-4.153-.955-4.793-2.875-.64-2.24.96-4.16 2.88-4.8 24.32-5.44 45.44-3.2 62.08 7.04 2.24.96 2.555 3.515 1.605 5.435zm7.68-17.6c-1.604 2.24-4.484 3.2-6.724 1.6-17.276-10.56-43.516-13.76-63.676-7.36-2.554.64-5.44-.64-6.08-3.2-.64-2.56.64-5.44 3.2-6.08 23.04-7.36 51.52-3.84 71.68 8.32 1.92.965 2.88 4.165 1.6 6.72zm.64-17.92C114.669 79.813 73.949 78.533 51.549 85.253c-3.2.96-6.4-.96-7.36-4.16-.96-3.2.96-6.4 4.16-7.36 25.6-7.68 68.16-6.08 95.04 9.6 2.88 1.6 3.84 5.44 2.24 8.32-1.595 2.245-5.435 3.205-8.32 1.6z" fill="#1DB954"/>
  <!-- Diagonal cross -->
  <line x1="40" y1="40" x2="152" y2="152" stroke="#1DB954" stroke-width="12" stroke-linecap="round"/>
  <line x1="152" y1="40" x2="40" y2="152" stroke="#1DB954" stroke-width="12" stroke-linecap="round"/>
</svg>
