<svg xmlns="http://www.w3.org/2000/svg" viewBox="0 0 512 512" fill="none">
  <rect width="512" height="512" rx="102" fill="#000"/>
  <path d="M256 85.333C170.41 85.333 101.333 154.41 101.333 240c0 85.59 69.077 154.667 154.667 154.667 85.59 0 154.667-69.077 154.667-154.667 0-85.59-69.077-154.667-154.667-154.667zm78.37 222.923c-3.413 5.107-9.387 6.827-14.507 3.413-40.107-24.747-90.453-29.867-150.187-16.213-5.94 1.733-11.073-2.547-12.78-7.667-1.707-5.973 2.56-11.093 7.68-12.8 64.853-14.507 121.173-8.533 165.547 18.773 5.973 2.56 6.813 9.373 4.28 14.494zm20.48-46.933c-4.277 5.973-11.96 8.533-17.927 4.267-46.073-28.16-116.047-36.693-169.803-19.627-6.813 1.707-14.507-1.707-16.213-8.533-1.707-6.827 1.707-14.507 8.533-16.213 61.44-19.627 137.387-10.24 191.147 22.187 5.12 2.573 7.68 11.106 4.267 17.92zm1.707-47.787C306.45 187.77 197.197 184.357 137.463 202.284c-8.533 2.56-17.067-2.56-19.627-11.093-2.56-8.533 2.56-17.067 11.093-19.627 68.267-20.48 181.76-16.213 253.44 25.6 7.68 4.267 10.24 14.507 5.973 22.187-4.253 5.986-14.493 8.546-22.186 4.266z" fill="#1DB954"/>
</svg>
